<mxfile host="Electron" modified="2023-06-10T13:34:32.663Z" agent="Mozilla/5.0 (Windows NT 10.0; Win64; x64) AppleWebKit/537.36 (KHTML, like Gecko) draw.io/21.2.8 Chrome/112.0.5615.165 Electron/24.2.0 Safari/537.36" etag="HAQil0IqwNM2fNyr1JO8" version="21.2.8" type="device">
  <diagram name="Page-1" id="FxitBaApEOWrgbqJlyL4">
    <mxGraphModel dx="1493" dy="872" grid="1" gridSize="10" guides="1" tooltips="1" connect="1" arrows="1" fold="1" page="1" pageScale="1" pageWidth="1169" pageHeight="827" math="0" shadow="0">
      <root>
        <mxCell id="0" />
        <mxCell id="1" parent="0" />
        <mxCell id="hIB5LNgimCdA9HKy_4q2-3" style="rounded=0;orthogonalLoop=1;jettySize=auto;html=1;exitX=1;exitY=0.5;exitDx=0;exitDy=0;entryX=0;entryY=0.5;entryDx=0;entryDy=0;startArrow=classic;startFill=1;dashed=1;strokeWidth=2;" parent="1" source="hIB5LNgimCdA9HKy_4q2-5" target="hIB5LNgimCdA9HKy_4q2-6" edge="1">
          <mxGeometry relative="1" as="geometry" />
        </mxCell>
        <mxCell id="hIB5LNgimCdA9HKy_4q2-5" value="&lt;b style=&quot;font-size: 14px;&quot;&gt;WebSite&lt;br&gt;&lt;/b&gt;&lt;b style=&quot;border-color: var(--border-color); font-size: 14px;&quot;&gt;https://www.portal.nalog.gov.by/grp&lt;/b&gt;&lt;b style=&quot;font-size: 14px;&quot;&gt;&lt;br&gt;&lt;/b&gt;&lt;br style=&quot;font-size: 14px;&quot;&gt;https://www.portal.nalog.gov.by/grp&lt;br style=&quot;font-size: 14px;&quot;&gt;/getData?unp=&amp;lt;ТутУНП&amp;gt;" style="rounded=0;whiteSpace=wrap;html=1;fontSize=14;strokeWidth=2;" parent="1" vertex="1">
          <mxGeometry x="158.99999999999997" y="40" width="275.59" height="157.48" as="geometry" />
        </mxCell>
        <mxCell id="hIB5LNgimCdA9HKy_4q2-60" style="edgeStyle=orthogonalEdgeStyle;rounded=0;orthogonalLoop=1;jettySize=auto;html=1;exitX=1;exitY=0.5;exitDx=0;exitDy=0;entryX=0;entryY=0.5;entryDx=0;entryDy=0;entryPerimeter=0;strokeWidth=2;dashed=1;startArrow=classic;startFill=1;" parent="1" source="hIB5LNgimCdA9HKy_4q2-6" target="hIB5LNgimCdA9HKy_4q2-59" edge="1">
          <mxGeometry relative="1" as="geometry" />
        </mxCell>
        <mxCell id="hIB5LNgimCdA9HKy_4q2-6" value="" style="rounded=0;whiteSpace=wrap;html=1;fillColor=#E6E6E6;fontSize=14;strokeWidth=2;" parent="1" vertex="1">
          <mxGeometry x="559.9099999999999" y="99.05000000000001" width="39.37" height="39.37" as="geometry" />
        </mxCell>
        <mxCell id="Vl5Nl2U0Ym83cMFsmwOf-1" style="rounded=0;orthogonalLoop=1;jettySize=auto;html=1;exitX=1;exitY=0.5;exitDx=0;exitDy=0;entryX=0;entryY=0;entryDx=56.89;entryDy=83.75;entryPerimeter=0;strokeWidth=2;dashed=1;" parent="1" source="hIB5LNgimCdA9HKy_4q2-9" target="hIB5LNgimCdA9HKy_4q2-29" edge="1">
          <mxGeometry relative="1" as="geometry" />
        </mxCell>
        <mxCell id="hIB5LNgimCdA9HKy_4q2-9" value="" style="rounded=0;whiteSpace=wrap;html=1;fillColor=none;strokeColor=none;" parent="1" vertex="1">
          <mxGeometry x="150" y="433.74" width="80" height="120" as="geometry" />
        </mxCell>
        <mxCell id="hIB5LNgimCdA9HKy_4q2-10" value="&lt;b&gt;Хостинг&lt;/b&gt;" style="verticalAlign=top;align=center;shape=cube;size=10;direction=south;html=1;boundedLbl=1;spacingLeft=5;whiteSpace=wrap;strokeWidth=2;" parent="1" vertex="1">
          <mxGeometry x="477.09" y="214" width="402.5" height="298.48" as="geometry" />
        </mxCell>
        <mxCell id="hIB5LNgimCdA9HKy_4q2-12" value="&lt;b&gt;cPanel&lt;/b&gt;" style="verticalAlign=top;align=center;shape=cube;size=10;direction=south;fontStyle=0;html=1;boundedLbl=1;spacingLeft=5;whiteSpace=wrap;strokeWidth=2;" parent="1" vertex="1">
          <mxGeometry x="497.0899999999999" y="254" width="360" height="248.48" as="geometry" />
        </mxCell>
        <mxCell id="hIB5LNgimCdA9HKy_4q2-15" value="&lt;b&gt;Серверная часть&lt;/b&gt;&lt;br&gt;(NodeJS)&lt;br&gt;" style="verticalAlign=top;align=center;shape=cube;size=10;direction=south;html=1;boundedLbl=1;spacingLeft=5;whiteSpace=wrap;strokeWidth=2;" parent="1" vertex="1">
          <mxGeometry x="519.5899999999999" y="382.48" width="120" height="51.26" as="geometry" />
        </mxCell>
        <mxCell id="7-XOzqe8eWKMpxP6fuZY-2" style="rounded=0;orthogonalLoop=1;jettySize=auto;html=1;exitX=0.5;exitY=1;exitDx=0;exitDy=0;exitPerimeter=0;entryX=0;entryY=0;entryDx=0;entryDy=55;entryPerimeter=0;dashed=1;startArrow=classic;startFill=1;strokeWidth=2;" parent="1" source="hIB5LNgimCdA9HKy_4q2-21" target="hIB5LNgimCdA9HKy_4q2-15" edge="1">
          <mxGeometry relative="1" as="geometry" />
        </mxCell>
        <mxCell id="hIB5LNgimCdA9HKy_4q2-21" value="MySQL" style="shape=cylinder3;whiteSpace=wrap;html=1;boundedLbl=1;backgroundOutline=1;size=15;strokeWidth=2;fontStyle=1" parent="1" vertex="1">
          <mxGeometry x="555" y="280" width="60" height="58.74" as="geometry" />
        </mxCell>
        <mxCell id="hIB5LNgimCdA9HKy_4q2-27" value="Пользователь" style="shape=umlActor;verticalLabelPosition=bottom;verticalAlign=top;html=1;strokeWidth=2;" parent="1" vertex="1">
          <mxGeometry x="175" y="463.74" width="30" height="60" as="geometry" />
        </mxCell>
        <mxCell id="hIB5LNgimCdA9HKy_4q2-28" style="rounded=0;orthogonalLoop=1;jettySize=auto;html=1;exitX=0;exitY=0;exitDx=35;exitDy=0;exitPerimeter=0;entryX=0;entryY=0;entryDx=30.63;entryDy=120;entryPerimeter=0;strokeWidth=2;startArrow=classic;startFill=1;dashed=1;" parent="1" source="hIB5LNgimCdA9HKy_4q2-29" target="hIB5LNgimCdA9HKy_4q2-15" edge="1">
          <mxGeometry relative="1" as="geometry" />
        </mxCell>
        <mxCell id="7-XOzqe8eWKMpxP6fuZY-1" style="edgeStyle=orthogonalEdgeStyle;rounded=0;orthogonalLoop=1;jettySize=auto;html=1;exitX=0;exitY=0;exitDx=0;exitDy=73.75;exitPerimeter=0;entryX=0.5;entryY=1;entryDx=0;entryDy=0;elbow=vertical;curved=1;dashed=1;strokeWidth=2;startArrow=classic;startFill=1;" parent="1" source="hIB5LNgimCdA9HKy_4q2-29" target="hIB5LNgimCdA9HKy_4q2-5" edge="1">
          <mxGeometry relative="1" as="geometry" />
        </mxCell>
        <mxCell id="hIB5LNgimCdA9HKy_4q2-29" value="&lt;span&gt;Android&lt;/span&gt;&lt;br&gt;&lt;span style=&quot;font-weight: normal;&quot;&gt;(app-release.apk)&lt;/span&gt;" style="verticalAlign=top;align=center;shape=cube;size=10;direction=south;html=1;boundedLbl=1;spacingLeft=5;whiteSpace=wrap;strokeWidth=2;fontStyle=1" parent="1" vertex="1">
          <mxGeometry x="189.59" y="359.03999999999996" width="157.5" height="56.89" as="geometry" />
        </mxCell>
        <mxCell id="Vl5Nl2U0Ym83cMFsmwOf-7" style="rounded=0;orthogonalLoop=1;jettySize=auto;html=1;exitX=0;exitY=0;exitDx=0;exitDy=50;exitPerimeter=0;entryX=0;entryY=0;entryDx=51.26;entryDy=65;entryPerimeter=0;dashed=1;strokeWidth=2;startArrow=classic;startFill=1;" parent="1" source="hIB5LNgimCdA9HKy_4q2-33" target="hIB5LNgimCdA9HKy_4q2-15" edge="1">
          <mxGeometry relative="1" as="geometry" />
        </mxCell>
        <mxCell id="hIB5LNgimCdA9HKy_4q2-33" value="&lt;b&gt;Браузер&lt;/b&gt;&lt;br&gt;www.de-pa.by/admin" style="verticalAlign=top;align=center;shape=cube;size=10;direction=south;html=1;boundedLbl=1;spacingLeft=5;whiteSpace=wrap;strokeWidth=2;" parent="1" vertex="1">
          <mxGeometry x="409" y="544" width="160" height="51.26" as="geometry" />
        </mxCell>
        <mxCell id="hIB5LNgimCdA9HKy_4q2-34" style="rounded=0;orthogonalLoop=1;jettySize=auto;html=1;exitX=0.75;exitY=0.999;exitDx=0;exitDy=0;exitPerimeter=0;entryX=0;entryY=0;entryDx=20.63;entryDy=0;entryPerimeter=0;endArrow=classic;endFill=1;startArrow=classic;startFill=1;strokeWidth=2;dashed=1;" parent="1" source="hIB5LNgimCdA9HKy_4q2-36" target="hIB5LNgimCdA9HKy_4q2-33" edge="1">
          <mxGeometry relative="1" as="geometry" />
        </mxCell>
        <mxCell id="hIB5LNgimCdA9HKy_4q2-36" value="&lt;b&gt;Панель администратора&amp;nbsp;&lt;/b&gt;&lt;br&gt;(Apache, ReactJS)" style="verticalAlign=top;align=center;shape=cube;size=10;direction=south;html=1;boundedLbl=1;spacingLeft=5;whiteSpace=wrap;strokeWidth=2;" parent="1" vertex="1">
          <mxGeometry x="660" y="444" width="170" height="48.07" as="geometry" />
        </mxCell>
        <mxCell id="hIB5LNgimCdA9HKy_4q2-37" value="HTML/CSS/JS" style="text;html=1;align=center;verticalAlign=middle;resizable=0;points=[];autosize=1;strokeColor=none;fillColor=none;" parent="1" vertex="1">
          <mxGeometry x="588.9999999999999" y="544" width="100" height="30" as="geometry" />
        </mxCell>
        <mxCell id="hIB5LNgimCdA9HKy_4q2-38" value="XML" style="text;html=1;align=center;verticalAlign=middle;resizable=0;points=[];autosize=1;strokeColor=none;fillColor=none;" parent="1" vertex="1">
          <mxGeometry x="282.38000000000005" y="322.48" width="50" height="30" as="geometry" />
        </mxCell>
        <mxCell id="hIB5LNgimCdA9HKy_4q2-39" value="JSON" style="text;html=1;align=center;verticalAlign=middle;resizable=0;points=[];autosize=1;strokeColor=none;fillColor=none;" parent="1" vertex="1">
          <mxGeometry x="374.59000000000003" y="366.85" width="60" height="30" as="geometry" />
        </mxCell>
        <mxCell id="hIB5LNgimCdA9HKy_4q2-59" value="БД" style="shape=cylinder3;whiteSpace=wrap;html=1;boundedLbl=1;backgroundOutline=1;size=15;strokeWidth=2;fontStyle=1" parent="1" vertex="1">
          <mxGeometry x="800" y="89.37000000000005" width="60" height="58.74" as="geometry" />
        </mxCell>
        <mxCell id="Vl5Nl2U0Ym83cMFsmwOf-15" style="rounded=0;orthogonalLoop=1;jettySize=auto;html=1;exitX=1;exitY=0.5;exitDx=0;exitDy=0;entryX=0;entryY=0;entryDx=30.63;entryDy=160;entryPerimeter=0;strokeWidth=2;dashed=1;" parent="1" source="Vl5Nl2U0Ym83cMFsmwOf-3" target="hIB5LNgimCdA9HKy_4q2-33" edge="1">
          <mxGeometry relative="1" as="geometry" />
        </mxCell>
        <mxCell id="Vl5Nl2U0Ym83cMFsmwOf-3" value="" style="rounded=0;whiteSpace=wrap;html=1;fillColor=none;strokeColor=none;" parent="1" vertex="1">
          <mxGeometry x="256.79" y="492.07" width="80" height="120" as="geometry" />
        </mxCell>
        <mxCell id="Vl5Nl2U0Ym83cMFsmwOf-4" value="Администратор" style="shape=umlActor;verticalLabelPosition=bottom;verticalAlign=top;html=1;strokeWidth=2;" parent="1" vertex="1">
          <mxGeometry x="279.29" y="526.44" width="35" height="60" as="geometry" />
        </mxCell>
        <mxCell id="Vl5Nl2U0Ym83cMFsmwOf-5" value="&lt;b&gt;Панель менеджера&amp;nbsp;&lt;/b&gt;&lt;br&gt;(Apache, ReactJS)" style="verticalAlign=top;align=center;shape=cube;size=10;direction=south;html=1;boundedLbl=1;spacingLeft=5;whiteSpace=wrap;strokeWidth=2;" parent="1" vertex="1">
          <mxGeometry x="660" y="383.74" width="170" height="50" as="geometry" />
        </mxCell>
        <mxCell id="Vl5Nl2U0Ym83cMFsmwOf-8" value="JSON" style="text;html=1;align=center;verticalAlign=middle;resizable=0;points=[];autosize=1;strokeColor=none;fillColor=none;" parent="1" vertex="1">
          <mxGeometry x="434.5899999999999" y="512.48" width="60" height="30" as="geometry" />
        </mxCell>
        <mxCell id="Vl5Nl2U0Ym83cMFsmwOf-21" style="rounded=0;orthogonalLoop=1;jettySize=auto;html=1;exitX=0.5;exitY=0;exitDx=0;exitDy=0;entryX=0;entryY=0;entryDx=51.26;entryDy=83.895;entryPerimeter=0;dashed=1;strokeWidth=2;" parent="1" source="Vl5Nl2U0Ym83cMFsmwOf-10" target="Vl5Nl2U0Ym83cMFsmwOf-14" edge="1">
          <mxGeometry relative="1" as="geometry" />
        </mxCell>
        <mxCell id="Vl5Nl2U0Ym83cMFsmwOf-10" value="" style="rounded=0;whiteSpace=wrap;html=1;fillColor=none;strokeColor=none;" parent="1" vertex="1">
          <mxGeometry x="960" y="444" width="80" height="120" as="geometry" />
        </mxCell>
        <mxCell id="Vl5Nl2U0Ym83cMFsmwOf-11" value="Менеджер" style="shape=umlActor;verticalLabelPosition=bottom;verticalAlign=top;html=1;strokeWidth=2;" parent="1" vertex="1">
          <mxGeometry x="985" y="474" width="30" height="60" as="geometry" />
        </mxCell>
        <mxCell id="Vl5Nl2U0Ym83cMFsmwOf-16" style="rounded=0;orthogonalLoop=1;jettySize=auto;html=1;exitX=0;exitY=0;exitDx=30.63;exitDy=157.79;exitPerimeter=0;entryX=0;entryY=0;entryDx=0;entryDy=0;entryPerimeter=0;strokeWidth=2;dashed=1;startArrow=classic;startFill=1;" parent="1" source="Vl5Nl2U0Ym83cMFsmwOf-14" target="hIB5LNgimCdA9HKy_4q2-15" edge="1">
          <mxGeometry relative="1" as="geometry" />
        </mxCell>
        <mxCell id="Vl5Nl2U0Ym83cMFsmwOf-17" style="rounded=0;orthogonalLoop=1;jettySize=auto;html=1;exitX=1;exitY=1;exitDx=0;exitDy=0;exitPerimeter=0;entryX=0;entryY=0;entryDx=20;entryDy=0;entryPerimeter=0;dashed=1;strokeWidth=2;startArrow=classic;startFill=1;" parent="1" source="Vl5Nl2U0Ym83cMFsmwOf-14" target="Vl5Nl2U0Ym83cMFsmwOf-5" edge="1">
          <mxGeometry relative="1" as="geometry" />
        </mxCell>
        <mxCell id="Vl5Nl2U0Ym83cMFsmwOf-14" value="&lt;b&gt;Браузер&lt;/b&gt;&lt;br&gt;www.de-pa.by/manager" style="verticalAlign=top;align=center;shape=cube;size=10;direction=south;html=1;boundedLbl=1;spacingLeft=5;whiteSpace=wrap;strokeWidth=2;" parent="1" vertex="1">
          <mxGeometry x="930" y="271.22" width="157.79" height="51.26" as="geometry" />
        </mxCell>
        <mxCell id="ZDYYHXDxwgn9L0GZkPY6-1" value="HTML/CSS/JS" style="text;html=1;align=center;verticalAlign=middle;resizable=0;points=[];autosize=1;strokeColor=none;fillColor=none;" vertex="1" parent="1">
          <mxGeometry x="884.9999999999999" y="348.24" width="100" height="30" as="geometry" />
        </mxCell>
        <mxCell id="ZDYYHXDxwgn9L0GZkPY6-2" value="JSON" style="text;html=1;align=center;verticalAlign=middle;resizable=0;points=[];autosize=1;strokeColor=none;fillColor=none;" vertex="1" parent="1">
          <mxGeometry x="870" y="271.22" width="60" height="30" as="geometry" />
        </mxCell>
      </root>
    </mxGraphModel>
  </diagram>
</mxfile>
